<svg xmlns="http://www.w3.org/2000/svg" viewBox="0 0 19 19.08">
  <title>icon-edit</title>
  <g>
    <g>
      <polygon points="15.98 6.01 14.94 7.08 9.08 13.08 6.08 13.08 6.08 10.08 9.15 7.08 13.15 3.18 15.98 6.01" fill="none" stroke="#424143" stroke-miterlimit="10" stroke-width="2"/>
      <path d="M17.39,4.59,16,6,13.15,3.18l1.42-1.41a1,1,0,0,1,1.41,0l1.41,1.41A1,1,0,0,1,17.39,4.59Z" fill="none" stroke="#424143" stroke-miterlimit="10" stroke-width="2"/>
    </g>
    <path d="M18,9.16v6.92a2,2,0,0,1-2,2H3a2,2,0,0,1-2-2V3A2,2,0,0,1,3,1h7" fill="none" stroke="#424143" stroke-miterlimit="10" stroke-width="2"/>
  </g>
</svg>
