<svg width="20" height="23" viewBox="0 0 20 23" xmlns="http://www.w3.org/2000/svg"><title>icon-invoices</title><desc>Created with Sketch.</desc><g fill="none" stroke="#ADB6B8" stroke-width="2"><path d="M17.545 22h-15.091c-.804 0-1.455-.648-1.455-1.448v-18.103c0-.8.651-1.448 1.455-1.448l10.355.004c.385 0 .526.149.799.421l4.967 4.945c.272.271.425.639.425 1.024v13.158c0 .8-.651 1.448-1.455 1.448z" id="Shape" stroke-linecap="round" stroke-linejoin="round"/><path d="M13.479 1.669l-.297.485v3.191c0 .8.651 1.448 1.455 1.448h3.761c.057-.136-1.583-1.844-4.919-5.124z" fill="#fff"/><path stroke-linecap="round" stroke-linejoin="round" d="M12 10h-5v3h5v3h-5"/><path d="M9.5 9.5v-1M9.5 17.5v-1" stroke-linecap="round"/></g></svg>