<svg width="13" height="14" viewBox="0 0 13 14" xmlns="http://www.w3.org/2000/svg" xmlns:xlink="http://www.w3.org/1999/xlink"><title>icon-strike</title><desc>Created with Sketch.</desc><defs><path d="M.5 6.5h10" id="a"/></defs><g fill="none"><path d="M6.685 13.44c-2.317 0-3.994-.829-5.125-1.997l1.243-1.714c.848.923 2.223 1.752 3.975 1.752 1.809 0 2.506-.886 2.506-1.733 0-2.638-7.31-.999-7.31-5.614 0-2.091 1.809-3.693 4.578-3.693 1.941 0 3.542.641 4.691 1.771l-1.243 1.639c-.999-.999-2.336-1.451-3.655-1.451-1.281 0-2.11.641-2.11 1.564 0 2.355 7.31.904 7.31 5.577 0 2.091-1.488 3.9-4.861 3.9z" fill="#fff"/><g transform="translate(1 0)"><use stroke="#111D32" stroke-width="3" xlink:href="#a"/><use stroke="#fff" xlink:href="#a"/></g></g></svg>