<svg width="20" height="22" viewBox="0 0 20 22" xmlns="http://www.w3.org/2000/svg"><title>icon-estimate</title><desc>Created with Sketch.</desc><g stroke="#3C6F9E" stroke-width="2" fill="none"><path d="M18 21h-16c-.552 0-1-.448-1-1v-18c0-.552.448-1 1-1h16c.552 0 1 .448 1 1v18c0 .552-1 1-1 1z"/><path d="M4 9h12v-5h-12z"/><path d="M3 12h4"/><path d="M3 15h4"/><path d="M3 18h4"/><path d="M8 12h4"/><path d="M8 15h4"/><path d="M8 18h4"/><path d="M13 15h4"/><path d="M13 18h4"/><path d="M13 12h4"/></g></svg>