<svg xmlns="http://www.w3.org/2000/svg" viewBox="0 0 886 600">
  <title>Artboard 1</title>
  <g>
    <path d="M246.32,267.15c0-17.8,22.39-45.52,56.9-45.52,4.09,0,14.81.95,14.81,6.71,0,8.32-15.76,11.6-22.25,11.6-4.16,0-9.63-.51-11-3.87a7.22,7.22,0,0,0,4.09,1.17c6.42,0,14.52-6.56,14.52-10.5,0-1.68-1.53-2.92-5.25-2.92-13.2,0-35.52,23.27-35.52,37.27,0,6.05,4.09,10.36,14.88,10.36,4.89,0,10.5-1.68,16.12-5.69l2.84-2,1.09,1.31-2.84,2c-3.5,2.48-20.5,14.59-32.39,14.59C251.28,281.66,246.32,275.54,246.32,267.15Z" fill="#f4d398"/>
    <path d="M311.46,256.21c-5,0-9,6.71-9,11.09,0,3.28,1.6,4.67,3.72,4.67a8.06,8.06,0,0,0,5.54-2.84,7.19,7.19,0,0,1-1.68-5c0-3.65,2.12-7.37,6-7.37,1.9,0,2.77,1.24,2.77,3.14,0,2.26-1.31,5.47-3.5,8.68a3.54,3.54,0,0,0,.87.07c1.68,0,3.87-.95,6.57-2.92l2.84-2,1.09,1.31-2.84,2c-3.43,2.48-6.2,3.57-8.32,3.57a4.84,4.84,0,0,1-1.53-.22c-4,5-10.29,9.41-17.51,9.41-3.57,0-6.05-1.68-6.05-5.54,0-7.44,12-20.21,22.47-20.21,2,0,3.06.58,3.06,1.31,0,.51-.66,1.09-1.9,1.46A5.82,5.82,0,0,0,311.46,256.21Zm16.92-7.44c-2.77-.51-6.35-2.12-8-4.38C317,247.31,308.18,248,308.18,248l-.58-.44a40.92,40.92,0,0,0,12.91-9.26,2.83,2.83,0,0,1,1.09-.15c4,0,2.84,6.35,7.37,10.21Zm-14.52,10.8c-1.31,0-2,1.75-2,3.72a6.55,6.55,0,0,0,1.24,4,12.23,12.23,0,0,0,1.6-6.05C314.67,260.07,314.31,259.56,313.87,259.56Z" fill="#f4d398"/>
    <path d="M408.12,226.3c-6.64,4.67-13.2,14.3-20.21,24.51a61.83,61.83,0,0,0,8.9-1.75c10.94-15.39,27.06-28.52,41.8-28.52,5.33,0,7.66,1.17,7.66,3.14,0,5.76-20.21,18.16-41.94,25.09-3.28,6.71-5.32,13.86-5.32,20,0,9,4.38,15.76,15.61,15.76a30.07,30.07,0,0,0,5-.36c-3.14,9.41-10.87,13.57-18.31,13.57-8.9,0-17.36-5.91-17.36-16,0-8.75,4.45-20,11.38-30.42-3,.73-5.91,1.31-8.83,1.75-10.21,14.59-21.52,29.1-35.31,29.1-9.19,0-13.28-4.52-13.28-9.34,0-5.18,4.74-10.65,13.2-11.23,0,2.33,2.33,2.92,3.87,2.92,7.22,0,14.08-4.52,20.94-10.72-6.05-.07-11.45-1.17-15.61-3.72-1.46-.87-2.33-2-2.33-3.14s.88-2.41,3.06-3.72c4.52,5.11,10.72,7.51,17.65,8,9.19-8.83,18.53-19.84,28.81-25.82Zm-1.09-1.6c-11.82,6.27-17.87,7.37-22.54,7.37-2.33,0-4.38-.29-6.57-.29-2.92,0-6.05.51-10.87,2.7h-.51c5.11-8.39,12.18-10.21,19.18-10.21,5.25,0,10.5,1,15,1a15.13,15.13,0,0,0,6-1Zm24.8-.37c-9.56,0-19.7,10-26.11,21.81C421.61,239.94,435,229.95,435,226,435,224.91,434,224.33,431.82,224.33Z" fill="#f4d398"/>
    <path d="M440.73,255c-3.43,3.65-6,8.83-6,11.89,0,1.53.66,2.55,2.19,2.55s4-1.09,7.66-3.72l2.84-2,1.09,1.31-2.84,2c-5.47,3.94-15,12.55-18.75,12.55-1.46,0-2.19-1.6-2.19-3.94a18.93,18.93,0,0,1,.58-4.23c-4.45,4-10.5,8.53-14.37,8.53-3.65,0-5.18-1.68-5.18-4.16,0-7.22,12.91-21.37,24.22-21.37,2,0,3.87.73,4.45,2.33a9.94,9.94,0,0,1,5.47-1.75Zm-24.58,14.59a2.17,2.17,0,0,0,2.26,2.48c1.6,0,4.08-1,7.81-3.57,1.46-4.08,3.87-8.32,7.15-10.94a2.74,2.74,0,0,0-2.85-1.75C422.56,255.84,416.14,265.11,416.14,269.63Z" fill="#f4d398"/>
    <path d="M452.47,267.44c0,1.24.51,2,1.75,2,1.46,0,3.87-1,7.51-3.65l2.84-2,1.09,1.31-2.84,2c-2.7,1.9-14.15,12.55-18.75,12.55-1.53,0-2.33-1.53-2.33-3.87,0-6.05,6.49-20.94,15.39-20.94a9.06,9.06,0,0,1,2.7.44C455.61,259.05,452.47,264.52,452.47,267.44Zm18.53-26a6.34,6.34,0,0,1-6,5.76c-2.19,0-3.14-1.31-3.14-2.92a5.83,5.83,0,0,1,5.84-5.47C470.05,238.77,471,239.94,471,241.4Z" fill="#f4d398"/>
  </g>
  <g>
    <path d="M335,234.42c-2-2-15.3-6.68-31.73-11-16-4.17-29.54-6.6-32.79-6,3.19,2.25,16.11,6.68,31.84,10.78C317.57,232.23,330.68,234.65,335,234.42Z" fill="#e0b892"/>
    <g>
      <path d="M244.63,265.82c0-17.8,22.39-45.52,56.9-45.52,4.09,0,14.81.95,14.81,6.71,0,8.32-15.76,11.6-22.25,11.6-4.16,0-9.63-.51-11-3.87a7.22,7.22,0,0,0,4.09,1.17c6.42,0,14.52-6.56,14.52-10.5,0-1.68-1.53-2.92-5.25-2.92-13.2,0-35.52,23.27-35.52,37.27,0,6.05,4.09,10.36,14.88,10.36,4.89,0,10.5-1.68,16.12-5.69l2.84-2,1.09,1.31-2.84,2c-3.5,2.48-20.5,14.59-32.39,14.59C249.59,280.34,244.63,274.21,244.63,265.82Z" fill="#e27100"/>
      <path d="M309.77,254.88c-5,0-9,6.71-9,11.09,0,3.28,1.6,4.67,3.72,4.67a8.06,8.06,0,0,0,5.54-2.84,7.19,7.19,0,0,1-1.68-5c0-3.65,2.12-7.37,6-7.37,1.9,0,2.77,1.24,2.77,3.14,0,2.26-1.31,5.47-3.5,8.68a3.54,3.54,0,0,0,.87.07c1.68,0,3.87-.95,6.57-2.92l2.84-2,1.09,1.31-2.84,2c-3.43,2.48-6.2,3.57-8.32,3.57a4.84,4.84,0,0,1-1.53-.22c-4,5-10.29,9.41-17.51,9.41-3.57,0-6.05-1.68-6.05-5.54,0-7.44,12-20.21,22.47-20.21,2,0,3.06.58,3.06,1.31,0,.51-.66,1.09-1.9,1.46A5.82,5.82,0,0,0,309.77,254.88Zm16.92-7.44c-2.77-.51-6.35-2.12-8-4.38-3.43,2.92-12.26,3.57-12.26,3.57l-.58-.44a40.92,40.92,0,0,0,12.91-9.26,2.83,2.83,0,0,1,1.09-.15c4,0,2.84,6.35,7.37,10.21Zm-14.52,10.8c-1.31,0-2,1.75-2,3.72a6.55,6.55,0,0,0,1.24,4,12.23,12.23,0,0,0,1.6-6.05C313,258.75,312.62,258.24,312.18,258.24Z" fill="#e27100"/>
      <path d="M406.43,225c-6.64,4.67-13.2,14.3-20.21,24.51a61.83,61.83,0,0,0,8.9-1.75c10.94-15.39,27.06-28.52,41.8-28.52,5.33,0,7.66,1.17,7.66,3.14,0,5.76-20.21,18.16-41.94,25.09-3.28,6.71-5.32,13.86-5.32,20,0,9,4.38,15.76,15.61,15.76a30.07,30.07,0,0,0,5-.36c-3.14,9.41-10.87,13.57-18.31,13.57-8.9,0-17.36-5.91-17.36-16,0-8.75,4.45-20,11.38-30.42-3,.73-5.91,1.31-8.83,1.75-10.21,14.59-21.52,29.1-35.31,29.1-9.19,0-13.28-4.52-13.28-9.34,0-5.18,4.74-10.65,13.2-11.23,0,2.33,2.33,2.92,3.87,2.92,7.22,0,14.08-4.52,20.93-10.72-6.05-.07-11.45-1.17-15.61-3.72-1.46-.87-2.33-2-2.33-3.14s.88-2.41,3.06-3.72c4.52,5.11,10.72,7.51,17.65,8C386.15,241,395.49,230,405.77,224Zm-1.09-1.6c-11.82,6.27-17.87,7.37-22.54,7.37-2.33,0-4.38-.29-6.57-.29-2.92,0-6.05.51-10.87,2.7h-.51C370,224.75,377,222.93,384,222.93c5.25,0,10.5,1,15,1a15.13,15.13,0,0,0,6-1Zm24.8-.37c-9.56,0-19.7,10-26.11,21.81,15.9-6.2,29.25-16.19,29.25-20.13C433.27,223.59,432.32,223,430.13,223Z" fill="#e27100"/>
      <path d="M439,253.71c-3.43,3.65-6,8.83-6,11.89,0,1.53.66,2.55,2.19,2.55s4-1.09,7.66-3.72l2.84-2,1.09,1.31-2.84,2c-5.47,3.94-15,12.55-18.75,12.55-1.46,0-2.19-1.6-2.19-3.94a18.93,18.93,0,0,1,.58-4.23c-4.45,4-10.5,8.53-14.37,8.53-3.65,0-5.18-1.68-5.18-4.16,0-7.22,12.91-21.37,24.22-21.37,2,0,3.87.73,4.45,2.33a9.94,9.94,0,0,1,5.47-1.75ZM414.45,268.3a2.17,2.17,0,0,0,2.26,2.48c1.6,0,4.08-1,7.81-3.57,1.46-4.08,3.87-8.32,7.15-10.94a2.74,2.74,0,0,0-2.85-1.75C420.87,254.52,414.45,263.78,414.45,268.3Z" fill="#e27100"/>
      <path d="M450.78,266.11c0,1.24.51,2,1.75,2,1.46,0,3.87-1,7.51-3.65l2.84-2,1.09,1.31-2.84,2c-2.7,1.9-14.15,12.55-18.75,12.55-1.53,0-2.33-1.53-2.33-3.87,0-6.05,6.49-20.94,15.39-20.94a9.06,9.06,0,0,1,2.7.44C453.92,257.73,450.78,263.2,450.78,266.11Zm18.53-26a6.34,6.34,0,0,1-6,5.76c-2.19,0-3.14-1.31-3.14-2.92a5.83,5.83,0,0,1,5.84-5.47C468.36,237.45,469.31,238.61,469.31,240.07Z" fill="#e27100"/>
    </g>
    <path d="M269.74,217.87c.43-1.63,15.43.87,33.52,5.59,14.41,3.76,26.41,7.79,30.49,10.1l2.89-.26-26.87-30.18L268,218.23l2.5.6C269.95,218.44,269.67,218.12,269.74,217.87Z" fill="#fff"/>
    <path d="M304.27,221.64c17,4.44,30.76,9.94,33.4,13.18h0L310.59,201.7l-41.9,15.12h0C272.58,215.29,287.25,217.2,304.27,221.64Z" fill="#ffd366"/>
    <path d="M297.27,219.92l13.23-18.14-.19.07c-.76,1.05-17.22,17.2-17.22,17.2S295.62,219.46,297.27,219.92Z" fill="#ffefae"/>
  </g>
  <g>
    <path d="M386.7,325.81a4.93,4.93,0,0,1-5.21-5.09v-7.2a5.2,5.2,0,0,1,10.39,0v7.2A4.91,4.91,0,0,1,386.7,325.81Zm2.06-12.24a2.09,2.09,0,1,0-4.15,0v7.13a2.09,2.09,0,1,0,4.15,0Z" fill="#5b0202"/>
    <path d="M403.67,318.27,400,325.67h-3.38l3.55-7.06a3.38,3.38,0,0,1-1.27.22c-2.3,0-4.51-1.9-4.51-5.06a5,5,0,0,1,5.33-5.33,5,5,0,0,1,5.33,5.28A10.49,10.49,0,0,1,403.67,318.27Zm-3.91-7a2.51,2.51,0,1,0,2.21,2.5A2.22,2.22,0,0,0,399.76,311.24Z" fill="#5b0202"/>
    <path d="M417,323.24v2.42h-3v-2.42h-7v-3l5.86-11.71h3.41l-5.86,11.71H414V317.1h3v3.19h1.56v3Z" fill="#5b0202"/>
    <path d="M425.75,325.81a5,5,0,0,1-5.33-5.28,10.54,10.54,0,0,1,1.44-4.56l3.6-7.39h3.41l-3.55,7.06a3.38,3.38,0,0,1,1.27-.22c2.3,0,4.49,1.9,4.49,5.06A5,5,0,0,1,425.75,325.81Zm0-7.8a2.51,2.51,0,1,0,2.21,2.5A2.22,2.22,0,0,0,425.75,318Z" fill="#5b0202"/>
    <path d="M433.72,325.67v-2.81l6.38-7.42a2.94,2.94,0,0,0,.89-2.06,2.08,2.08,0,1,0-4.15,0h-3.12a4.86,4.86,0,0,1,5.21-5c3,0,5.18,1.9,5.18,5,0,1.66-.65,2.54-1.82,3.91l-4.78,5.54h6.6v2.81Z" fill="#5b0202"/>
    <path d="M451.79,325.81c-2.78,0-5.4-1.46-5.45-5h3.12a2.32,2.32,0,0,0,4.63-.14,2.19,2.19,0,0,0-2.4-2.35h-.46v-2.71h.46a2,2,0,0,0,2.16-2.14,2.1,2.1,0,1,0-4.2-.12h-3.12a5.23,5.23,0,0,1,10.44,0,3.65,3.65,0,0,1-2,3.5,4.08,4.08,0,0,1,2.21,3.89C457.21,324.13,454.72,325.81,451.79,325.81Z" fill="#5b0202"/>
    <path d="M469.09,323.24v2.42h-3v-2.42h-7v-3L465,308.58h3.41l-5.86,11.71h3.58V317.1h3v3.19h1.56v3Z" fill="#5b0202"/>
    <path d="M477.93,325.81c-3,0-5.47-1.8-5.47-5.11a4.42,4.42,0,0,1,2.14-3.84,4.25,4.25,0,0,1-1.92-3.55c0-3,2.4-4.87,5.26-4.87s5.23,1.85,5.23,4.87a4.25,4.25,0,0,1-1.92,3.55,4.43,4.43,0,0,1,2.16,3.84C483.4,324,481,325.81,477.93,325.81Zm0-7.54a2.36,2.36,0,1,0,2.35,2.38A2.35,2.35,0,0,0,477.93,318.27Zm0-7a2.16,2.16,0,0,0,0,4.32,2.16,2.16,0,0,0,0-4.32Z" fill="#5b0202"/>
    <path d="M491,325.67h-3.38l5.54-14.28h-4.51v2.69h-3v-5.5H496.5v2.81Z" fill="#5b0202"/>
    <path d="M507.93,318.27l-3.62,7.39h-3.38l3.55-7.06a3.38,3.38,0,0,1-1.27.22c-2.3,0-4.51-1.9-4.51-5.06a5,5,0,0,1,5.33-5.33,5,5,0,0,1,5.33,5.28A10.48,10.48,0,0,1,507.93,318.27Zm-3.91-7a2.51,2.51,0,1,0,2.21,2.5A2.22,2.22,0,0,0,504,311.24Z" fill="#5b0202"/>
  </g>
  <rect x="335.17" y="319" width="36.67" height="1" fill="#5b0202"/>
  <rect x="516.17" y="318" width="36.67" height="1" fill="#5b0202"/>
  <g>
    <g>
      <path d="M503.55,243c-4.22,5.31-13.5,17.15-13.5,24.19a2.52,2.52,0,0,0,2.62,2.75,4.2,4.2,0,0,0,2.69-1.09l.64.83c-4.22,5.25-11.52,11.07-18.37,11.07-2.56,0-3.52-2.37-3.52-4.42,0-9.66,19.2-24.89,27.71-32.51-6,5.12-12,3.58-16.51,7.23l-.45-.58c7.23-11,12.67-6,17.92-8.32Z" fill="#681717"/>
      <path d="M492.42,272.73c0-5.44,5.25-8.45,9.92-8.45a9.06,9.06,0,0,1,4.74,1.28,9.55,9.55,0,0,0-.13,1.28c0,3.26,2.88,4.86,6.53,4.86,10.11,0,19.07-14.08,19.07-22.33,0-3.46-1.54-5.82-5.18-5.82-5.31,0-11.13,7-11.13,11.46,0,2,1.22,3.46,4.16,3.46,3.9,0,6.59-3.78,7.74-7a7.68,7.68,0,0,1,.06,1.22c0,7-9.28,12-15.93,12-4.93,0-6.91-2.11-6.91-5.06,0-6.78,10.62-18,20.42-18,6.66,0,9.54,4,9.54,9.34,0,11.65-13.31,29.95-30.27,29.95C503.62,280.86,492.42,280.66,492.42,272.73Z" fill="#681717"/>
      <path d="M564.54,241.43c4.86,0,8.64,1.86,8.64,6.4,0,5.18-5,7.62-11.33,9.41,2.56,1.73,4.8,3.84,4.8,6.91,0,9.66-14.08,16.25-24.89,16.25-6.72,0-12.16-2.56-12.16-8.45,0-6.85,7.62-10.11,16.13-12.48a5.39,5.39,0,0,1-2.24-4.42C543.49,247.51,555.78,241.43,564.54,241.43Zm-16.89,19.33c-6.34,1.79-11.39,4.29-11.39,9.54s4.48,7.81,9.15,7.81c5.06,0,10.37-3.07,10.37-9.22C555.78,264.09,551.23,262.75,547.65,260.76Zm11.84-4.93c5.38-1.66,9.34-3.78,9.34-7.23,0-3.84-2.88-5.5-6.08-5.5-4.22,0-9.09,2.82-9.09,7.1C553.66,252.51,556.61,254,559.49,255.83Z" fill="#681717"/>
      <path d="M617.47,257.37c-2.5,7.3-15,13.12-21.89,13.12h-.06a3.93,3.93,0,0,0,3.9,2.37,4.64,4.64,0,0,0,3.07-1.09c-2,5.82-10.17,9.09-16.19,9.09-3.84,0-6.85-1.34-6.85-4.22s1.34-6,3.65-9.09c-4.67-1.73-9.21-3.65-13.76-3.65a14,14,0,0,0-2.82.26l-.58-1c13.57-8.58,41.85-21.05,52.16-23.36a4.89,4.89,0,0,1,2.62.83c-4.48,2.56-15.49,12.74-21.37,20.8a19.69,19.69,0,0,0,5,.64C608.19,262,614.91,259.93,617.47,257.37Zm-37.12.06c-1.09.58-2.18,1.15-3.26,1.79a29.37,29.37,0,0,1,8.38-1.28,21.22,21.22,0,0,1,6,.9c7.23-6.27,16.38-12.22,24-17.15C601.79,245.66,592.19,251,580.35,257.43Z" fill="#681717"/>
    </g>
    <g>
      <path d="M503.55,241c-4.22,5.31-13.5,17.15-13.5,24.19a2.52,2.52,0,0,0,2.62,2.75,4.2,4.2,0,0,0,2.69-1.09l.64.83c-4.22,5.25-11.52,11.07-18.37,11.07-2.56,0-3.52-2.37-3.52-4.42,0-9.66,19.2-24.89,27.71-32.51-6,5.12-12,3.58-16.51,7.23l-.45-.58c7.23-11,12.67-6,17.92-8.32Z" fill="#e27100"/>
      <path d="M492.42,270.73c0-5.44,5.25-8.45,9.92-8.45a9.06,9.06,0,0,1,4.74,1.28,9.55,9.55,0,0,0-.13,1.28c0,3.26,2.88,4.86,6.53,4.86,10.11,0,19.07-14.08,19.07-22.33,0-3.46-1.54-5.82-5.18-5.82-5.31,0-11.13,7-11.13,11.46,0,2,1.22,3.46,4.16,3.46,3.9,0,6.59-3.78,7.74-7a7.68,7.68,0,0,1,.06,1.22c0,7-9.28,12-15.93,12-4.93,0-6.91-2.11-6.91-5.06,0-6.78,10.62-18,20.42-18,6.66,0,9.54,4,9.54,9.34,0,11.65-13.31,29.95-30.27,29.95C503.62,278.86,492.42,278.66,492.42,270.73Z" fill="#e27100"/>
      <path d="M564.54,239.43c4.86,0,8.64,1.86,8.64,6.4,0,5.18-5,7.62-11.33,9.41,2.56,1.73,4.8,3.84,4.8,6.91,0,9.66-14.08,16.25-24.89,16.25-6.72,0-12.16-2.56-12.16-8.45,0-6.85,7.62-10.11,16.13-12.48a5.39,5.39,0,0,1-2.24-4.42C543.49,245.51,555.78,239.43,564.54,239.43Zm-16.89,19.33c-6.34,1.79-11.39,4.29-11.39,9.54s4.48,7.81,9.15,7.81c5.06,0,10.37-3.07,10.37-9.22C555.78,262.09,551.23,260.75,547.65,258.76Zm11.84-4.93c5.38-1.66,9.34-3.78,9.34-7.23,0-3.84-2.88-5.5-6.08-5.5-4.22,0-9.09,2.82-9.09,7.1C553.66,250.51,556.61,252,559.49,253.83Z" fill="#e27100"/>
      <path d="M617.47,255.37c-2.5,7.3-15,13.12-21.89,13.12h-.06a3.93,3.93,0,0,0,3.9,2.37,4.64,4.64,0,0,0,3.07-1.09c-2,5.82-10.17,9.09-16.19,9.09-3.84,0-6.85-1.34-6.85-4.22s1.34-6,3.65-9.09c-4.67-1.73-9.21-3.65-13.76-3.65a14,14,0,0,0-2.82.26l-.58-1c13.57-8.58,41.85-21.05,52.16-23.36a4.89,4.89,0,0,1,2.62.83c-4.48,2.56-15.49,12.74-21.37,20.8a19.69,19.69,0,0,0,5,.64C608.19,260,614.91,257.93,617.47,255.37Zm-37.12.06c-1.09.58-2.18,1.15-3.26,1.79a29.37,29.37,0,0,1,8.38-1.28,21.22,21.22,0,0,1,6,.9c7.23-6.27,16.38-12.22,24-17.15C601.79,243.66,592.19,249,580.35,255.43Z" fill="#e27100"/>
    </g>
  </g>
</svg>
