<svg xmlns="http://www.w3.org/2000/svg" xmlns:xlink="http://www.w3.org/1999/xlink" viewBox="0 0 120 80.36"><defs><linearGradient id="a" x1="60" x2="60" y2="51.48" gradientUnits="userSpaceOnUse"><stop offset="0" stop-color="#233d77"/><stop offset="1" stop-color="#767eb8"/></linearGradient><linearGradient id="b" y1="63.86" x2="120" y2="63.86" xlink:href="#a"/><clipPath id="d"><path fill="none" d="M78.62 26.13h37.88v20.87h-37.88z"/></clipPath><linearGradient id="c" x1="96.71" y1="32.85" x2="96.71" y2="58.21" gradientUnits="userSpaceOnUse"><stop offset="0" stop-color="#9a9ed6"/><stop offset=".5" stop-color="#8894e6"/></linearGradient></defs><title>cover-4</title><path fill="url(#a)" d="M0 0h120v51.48h-120z"/><path fill="url(#b)" d="M0 47.37h120v32.99h-120z"/><g fill="#fff"><path d="M15.29 30.46h7.85a.93.93 0 0 1 1 1v2a.93.93 0 0 1-1 1h-7.85a.93.93 0 0 1-1-1v-2a.93.93 0 0 1 1-1zM22.72 30.46h7.85a.93.93 0 0 1 1 1v2a.93.93 0 0 1-1 1h-7.85a.93.93 0 0 1-1-1v-2a.93.93 0 0 1 1-1zM38 30.46h7.85a.93.93 0 0 1 1 1v2a.93.93 0 0 1-1 1h-7.85a.93.93 0 0 1-1-1v-2a.93.93 0 0 1 1-1zM45.4 30.46h7.85a.93.93 0 0 1 1 1v2a.93.93 0 0 1-1 1h-7.85a.93.93 0 0 1-1-1v-2a.93.93 0 0 1 1-1zM60.63 30.46h7.85a.93.93 0 0 1 1 1v2a.93.93 0 0 1-1 1h-7.85a.93.93 0 0 1-1-1v-2a.93.93 0 0 1 1-1zM68.07 30.46h7.85a.93.93 0 0 1 1 1v2a.93.93 0 0 1-1 1h-7.85a.93.93 0 0 1-1-1v-2a.93.93 0 0 1 1-1zM75.5 30.46h7.85a.93.93 0 0 1 1 1v2a.93.93 0 0 1-1 1h-7.85a.93.93 0 0 1-1-1v-2a.93.93 0 0 1 1-1z"/></g><path fill="#fff" d="M15.12 20l4.93-7.88 6.93 7.88h-11.86zM21.41 19.99l4.02-6.4 4.01 6.4h-8.03z"/><g fill="#fff"><path d="M15.51 54.46h6a.71.71 0 0 1 .74.74v1.52a.71.71 0 0 1-.74.74h-6a.71.71 0 0 1-.74-.74v-1.52a.71.71 0 0 1 .74-.74zM21.23 54.46h6a.71.71 0 0 1 .74.74v1.52a.71.71 0 0 1-.74.74h-6a.71.71 0 0 1-.74-.74v-1.52a.71.71 0 0 1 .74-.74zM15.51 62.46h6a.71.71 0 0 1 .74.74v1.52a.71.71 0 0 1-.74.74h-6a.71.71 0 0 1-.74-.74v-1.52a.71.71 0 0 1 .74-.74zM21.23 62.46h6a.71.71 0 0 1 .74.74v1.52a.71.71 0 0 1-.74.74h-6a.71.71 0 0 1-.74-.74v-1.52a.71.71 0 0 1 .74-.74zM26.95 62.46h6a.71.71 0 0 1 .74.74v1.52a.71.71 0 0 1-.74.74h-6a.71.71 0 0 1-.74-.74v-1.52a.71.71 0 0 1 .74-.74zM32.67 62.47h3.18a.71.71 0 0 1 .74.74v1.51a.71.71 0 0 1-.74.74h-3.18a.71.71 0 0 1-.74-.74v-1.51a.71.71 0 0 1 .74-.74z"/></g><g fill="#fff"><path d="M70.67 54.63h6a.71.71 0 0 1 .74.74v1.52a.71.71 0 0 1-.74.74h-6a.71.71 0 0 1-.74-.74v-1.52a.71.71 0 0 1 .74-.74zM76.39 54.63h6a.71.71 0 0 1 .74.74v1.52a.71.71 0 0 1-.74.74h-6a.71.71 0 0 1-.74-.74v-1.52a.71.71 0 0 1 .74-.74zM70.67 62.63h6a.71.71 0 0 1 .74.74v1.52a.71.71 0 0 1-.74.74h-6a.71.71 0 0 1-.74-.74v-1.52a.71.71 0 0 1 .74-.74zM76.39 62.63h6a.71.71 0 0 1 .74.74v1.52a.71.71 0 0 1-.74.74h-6a.71.71 0 0 1-.74-.74v-1.52a.71.71 0 0 1 .74-.74zM82.11 62.63h6a.71.71 0 0 1 .74.74v1.52a.71.71 0 0 1-.74.74h-6a.71.71 0 0 1-.74-.74v-1.52a.71.71 0 0 1 .74-.74zM87.83 62.64h3.17a.71.71 0 0 1 .74.74v1.51a.71.71 0 0 1-.74.74h-3.17a.71.71 0 0 1-.74-.74v-1.51a.71.71 0 0 1 .74-.74z"/></g><circle cx="96.71" cy="45.53" r="12.68" fill="url(#c)" clip-path="url(#d)"/></svg>