<svg xmlns="http://www.w3.org/2000/svg" viewBox="0 0 119.81 80"><title>cover-1</title><path fill="#233d77" d="M0 0h119.81v80h-119.81z"/><path stroke="#92bcea" stroke-miterlimit="10" stroke-width="2" fill="none" d="M6.03 6.02h107.99v66.98h-107.99zM6.88 47l106.25.13M61 47.63l-.09 25.68"/><g fill="#92bcea"><path d="M17.13 30.46h7.87a.93.93 0 0 1 1 1v2a.93.93 0 0 1-1 1h-7.87a.93.93 0 0 1-1-1v-2a.93.93 0 0 1 1-1zM24.56 30.46h7.85a.93.93 0 0 1 1 1v2a.93.93 0 0 1-1 1h-7.85a.93.93 0 0 1-1-1v-2a.93.93 0 0 1 1-1zM39.8 30.46h7.85a.93.93 0 0 1 1 1v2a.93.93 0 0 1-1 1h-7.85a.93.93 0 0 1-1-1v-2a.93.93 0 0 1 1-1zM47.23 30.46h7.85a.93.93 0 0 1 1 1v2a.93.93 0 0 1-1 1h-7.85a.93.93 0 0 1-1-1v-2a.93.93 0 0 1 1-1zM62.47 30.46h7.85a.93.93 0 0 1 1 1v2a.93.93 0 0 1-1 1h-7.85a.93.93 0 0 1-1-1v-2a.93.93 0 0 1 1-1zM69.91 30.46h7.85a.93.93 0 0 1 1 1v2a.93.93 0 0 1-1 1h-7.85a.93.93 0 0 1-1-1v-2a.93.93 0 0 1 1-1zM77.34 30.46h7.85a.93.93 0 0 1 1 1v2a.93.93 0 0 1-1 1h-7.85a.93.93 0 0 1-1-1v-2a.93.93 0 0 1 1-1z"/></g><g fill="#92bcea"><path d="M16.51 54.46h6a.71.71 0 0 1 .74.74v1.52a.71.71 0 0 1-.74.74h-6a.71.71 0 0 1-.74-.74v-1.52a.71.71 0 0 1 .74-.74zM22.23 54.46h6a.71.71 0 0 1 .74.74v1.52a.71.71 0 0 1-.74.74h-6a.71.71 0 0 1-.74-.74v-1.52a.71.71 0 0 1 .74-.74zM16.51 62.46h6a.71.71 0 0 1 .74.74v1.52a.71.71 0 0 1-.74.74h-6a.71.71 0 0 1-.74-.74v-1.52a.71.71 0 0 1 .74-.74zM22.23 62.46h6a.71.71 0 0 1 .74.74v1.52a.71.71 0 0 1-.74.74h-6a.71.71 0 0 1-.74-.74v-1.52a.71.71 0 0 1 .74-.74zM27.95 62.46h6a.71.71 0 0 1 .74.74v1.52a.71.71 0 0 1-.74.74h-6a.71.71 0 0 1-.74-.74v-1.52a.71.71 0 0 1 .74-.74zM33.67 62.47h3.18a.71.71 0 0 1 .74.74v1.51a.71.71 0 0 1-.74.74h-3.18a.71.71 0 0 1-.74-.74v-1.51a.71.71 0 0 1 .74-.74z"/></g><g fill="#92bcea"><path d="M70.67 54.63h6a.71.71 0 0 1 .74.74v1.52a.71.71 0 0 1-.74.74h-6a.71.71 0 0 1-.74-.74v-1.52a.71.71 0 0 1 .74-.74zM76.39 54.63h6a.71.71 0 0 1 .74.74v1.52a.71.71 0 0 1-.74.74h-6a.71.71 0 0 1-.74-.74v-1.52a.71.71 0 0 1 .74-.74zM70.67 62.63h6a.71.71 0 0 1 .74.74v1.52a.71.71 0 0 1-.74.74h-6a.71.71 0 0 1-.74-.74v-1.52a.71.71 0 0 1 .74-.74zM76.39 62.63h6a.71.71 0 0 1 .74.74v1.52a.71.71 0 0 1-.74.74h-6a.71.71 0 0 1-.74-.74v-1.52a.71.71 0 0 1 .74-.74zM82.11 62.63h6a.71.71 0 0 1 .74.74v1.52a.71.71 0 0 1-.74.74h-6a.71.71 0 0 1-.74-.74v-1.52a.71.71 0 0 1 .74-.74zM87.83 62.64h3.17a.71.71 0 0 1 .74.74v1.51a.71.71 0 0 1-.74.74h-3.17a.71.71 0 0 1-.74-.74v-1.51a.71.71 0 0 1 .74-.74z"/></g><path fill="#92bcea" d="M17.11 20l4.94-7.88 4.93 7.88h-9.87zM23.41 19.99l4.02-6.4 4.01 6.4h-8.03z"/></svg>