<svg xmlns="http://www.w3.org/2000/svg" viewBox="0 0 119.81 80"><title>cover-3</title><path fill="#233d77" d="M0 0h119.81v80h-119.81z"/><g fill="#92bcea"><path d="M16.29 30.46h7.85a.93.93 0 0 1 1 1v2a.93.93 0 0 1-1 1h-7.85a.93.93 0 0 1-1-1v-2a.93.93 0 0 1 1-1zM23.72 30.46h7.85a.93.93 0 0 1 1 1v2a.93.93 0 0 1-1 1h-7.85a.93.93 0 0 1-1-1v-2a.93.93 0 0 1 1-1zM39 30.46h7.85a.93.93 0 0 1 1 1v2a.93.93 0 0 1-1 1h-7.85a.93.93 0 0 1-1-1v-2a.93.93 0 0 1 1-1zM46.4 30.46h7.85a.93.93 0 0 1 1 1v2a.93.93 0 0 1-1 1h-7.85a.93.93 0 0 1-1-1v-2a.93.93 0 0 1 1-1zM61.63 30.46h7.85a.93.93 0 0 1 1 1v2a.93.93 0 0 1-1 1h-7.85a.93.93 0 0 1-1-1v-2a.93.93 0 0 1 1-1zM69.07 30.46h7.85a.93.93 0 0 1 1 1v2a.93.93 0 0 1-1 1h-7.85a.93.93 0 0 1-1-1v-2a.93.93 0 0 1 1-1zM76.5 30.46h7.85a.93.93 0 0 1 1 1v2a.93.93 0 0 1-1 1h-7.85a.93.93 0 0 1-1-1v-2a.93.93 0 0 1 1-1z"/></g><g fill="#92bcea"><path d="M15.51 54.46h6a.71.71 0 0 1 .74.74v1.52a.71.71 0 0 1-.74.74h-6a.71.71 0 0 1-.74-.74v-1.52a.71.71 0 0 1 .74-.74zM21.23 54.46h6a.71.71 0 0 1 .74.74v1.52a.71.71 0 0 1-.74.74h-6a.71.71 0 0 1-.74-.74v-1.52a.71.71 0 0 1 .74-.74zM15.51 62.46h6a.71.71 0 0 1 .74.74v1.52a.71.71 0 0 1-.74.74h-6a.71.71 0 0 1-.74-.74v-1.52a.71.71 0 0 1 .74-.74zM21.23 62.46h6a.71.71 0 0 1 .74.74v1.52a.71.71 0 0 1-.74.74h-6a.71.71 0 0 1-.74-.74v-1.52a.71.71 0 0 1 .74-.74zM26.95 62.46h6a.71.71 0 0 1 .74.74v1.52a.71.71 0 0 1-.74.74h-6a.71.71 0 0 1-.74-.74v-1.52a.71.71 0 0 1 .74-.74zM32.67 62.47h3.18a.71.71 0 0 1 .74.74v1.51a.71.71 0 0 1-.74.74h-3.18a.71.71 0 0 1-.74-.74v-1.51a.71.71 0 0 1 .74-.74z"/></g><g fill="#92bcea"><path d="M70.67 54.63h6a.71.71 0 0 1 .74.74v1.52a.71.71 0 0 1-.74.74h-6a.71.71 0 0 1-.74-.74v-1.52a.71.71 0 0 1 .74-.74zM76.39 54.63h6a.71.71 0 0 1 .74.74v1.52a.71.71 0 0 1-.74.74h-6a.71.71 0 0 1-.74-.74v-1.52a.71.71 0 0 1 .74-.74zM70.67 62.63h6a.71.71 0 0 1 .74.74v1.52a.71.71 0 0 1-.74.74h-6a.71.71 0 0 1-.74-.74v-1.52a.71.71 0 0 1 .74-.74zM76.39 62.63h6a.71.71 0 0 1 .74.74v1.52a.71.71 0 0 1-.74.74h-6a.71.71 0 0 1-.74-.74v-1.52a.71.71 0 0 1 .74-.74zM82.11 62.63h6a.71.71 0 0 1 .74.74v1.52a.71.71 0 0 1-.74.74h-6a.71.71 0 0 1-.74-.74v-1.52a.71.71 0 0 1 .74-.74zM87.83 62.64h3.17a.71.71 0 0 1 .74.74v1.51a.71.71 0 0 1-.74.74h-3.17a.71.71 0 0 1-.74-.74v-1.51a.71.71 0 0 1 .74-.74z"/></g><path fill="#92bcea" d="M15.12 20l4.93-7.88 6.93 7.88h-11.86zM21.41 19.99l4.02-6.4 4.01 6.4h-8.03z"/></svg>