<svg xmlns="http://www.w3.org/2000/svg" viewBox="0 0 15.96 19.98">
  <title>icon-compose</title>
  <g>
    <path d="M14,20H2a2,2,0,0,1-2-2V4A2,2,0,0,1,2,2L7.92,2V3.94l-6,0L1.84,18,14,18V8h2V18A2,2,0,0,1,14,20Z" fill="#666667"/>
    <polygon points="5.11 9.96 5.09 8.04 10.88 8.02 10.86 9.94 5.11 9.96" fill="#666667"/>
    <polygon points="13.89 5.73 11.94 5.81 11.94 0 13.89 0.06 13.89 5.73" fill="#666667"/>
    <polygon points="15.86 3.94 10.04 3.94 10.03 2.04 15.86 2 15.86 3.94" fill="#666667"/>
    <polygon points="5.07 13.94 5.03 12.05 10.87 12.04 10.84 13.91 5.07 13.94" fill="#666667"/>
  </g>
</svg>
